<svg width="37" height="36" viewBox="0 0 37 36" fill="none" xmlns="http://www.w3.org/2000/svg">
<path d="M12.515 3.75H24.485C29.045 3.75 32.75 7.455 32.75 12.015V23.985C32.75 26.177 31.8792 28.2792 30.3292 29.8292C28.7792 31.3792 26.677 32.25 24.485 32.25H12.515C7.955 32.25 4.25 28.545 4.25 23.985V12.015C4.25 9.82299 5.12077 7.72075 6.67076 6.17076C8.22075 4.62077 10.323 3.75 12.515 3.75ZM12.23 6.6C10.8694 6.6 9.5646 7.14048 8.60254 8.10254C7.64048 9.0646 7.1 10.3694 7.1 11.73V24.27C7.1 27.1057 9.39425 29.4 12.23 29.4H24.77C26.1306 29.4 27.4354 28.8595 28.3975 27.8975C29.3595 26.9354 29.9 25.6306 29.9 24.27V11.73C29.9 8.89425 27.6057 6.6 24.77 6.6H12.23ZM25.9812 8.7375C26.4537 8.7375 26.9067 8.92517 27.2408 9.25922C27.5748 9.59327 27.7625 10.0463 27.7625 10.5187C27.7625 10.9912 27.5748 11.4442 27.2408 11.7783C26.9067 12.1123 26.4537 12.3 25.9812 12.3C25.5088 12.3 25.0558 12.1123 24.7217 11.7783C24.3877 11.4442 24.2 10.9912 24.2 10.5187C24.2 10.0463 24.3877 9.59327 24.7217 9.25922C25.0558 8.92517 25.5088 8.7375 25.9812 8.7375ZM18.5 10.875C20.3897 10.875 22.2019 11.6257 23.5381 12.9619C24.8743 14.2981 25.625 16.1103 25.625 18C25.625 19.8897 24.8743 21.7019 23.5381 23.0381C22.2019 24.3743 20.3897 25.125 18.5 25.125C16.6103 25.125 14.7981 24.3743 13.4619 23.0381C12.1257 21.7019 11.375 19.8897 11.375 18C11.375 16.1103 12.1257 14.2981 13.4619 12.9619C14.7981 11.6257 16.6103 10.875 18.5 10.875ZM18.5 13.725C17.3662 13.725 16.2788 14.1754 15.4771 14.9771C14.6754 15.7788 14.225 16.8662 14.225 18C14.225 19.1338 14.6754 20.2212 15.4771 21.0229C16.2788 21.8246 17.3662 22.275 18.5 22.275C19.6338 22.275 20.7212 21.8246 21.5229 21.0229C22.3246 20.2212 22.775 19.1338 22.775 18C22.775 16.8662 22.3246 15.7788 21.5229 14.9771C20.7212 14.1754 19.6338 13.725 18.5 13.725Z" fill="white"/>
</svg>
