<svg width="36" height="36" viewBox="0 0 36 36" fill="none" xmlns="http://www.w3.org/2000/svg">
<path d="M25.2826 8.215C24.2003 6.9794 23.6038 5.3926 23.6043 3.75H18.7118V23.3833C18.674 24.4458 18.2255 25.4521 17.4606 26.1905C16.6957 26.9288 15.6741 27.3415 14.6109 27.3417C12.3626 27.3417 10.4943 25.505 10.4943 23.225C10.4943 20.5017 13.1226 18.4592 15.8301 19.2983V14.295C10.3676 13.5667 5.58594 17.81 5.58594 23.225C5.58594 28.4975 9.95594 32.25 14.5951 32.25C19.5668 32.25 23.6043 28.2125 23.6043 23.225V13.2658C25.5882 14.6906 27.9701 15.455 30.4126 15.4508V10.5583C30.4126 10.5583 27.4359 10.7008 25.2826 8.215Z" fill="white"/>
</svg>
