<svg width="47" height="36" viewBox="0 0 47 36" fill="none" xmlns="http://www.w3.org/2000/svg">
<path fill-rule="evenodd" clip-rule="evenodd" d="M23.75 3.75C25.273 3.75 26.8351 3.78919 28.3492 3.85331L30.1376 3.93881L31.8493 4.04034L33.4525 4.149L34.9167 4.263C36.5059 4.38393 38.0014 5.06177 39.1399 6.17713C40.2784 7.2925 40.9868 8.77383 41.1403 10.3602L41.2116 11.1172L41.3452 12.7382C41.4699 14.4179 41.5625 16.249 41.5625 18C41.5625 19.751 41.4699 21.5821 41.3452 23.2618L41.2116 24.8828L41.1403 25.6398C40.9868 27.2265 40.2781 28.708 39.1392 29.8234C38.0004 30.9388 36.5044 31.6165 34.9149 31.737L33.4543 31.8492L31.8511 31.9597L30.1376 32.0612L28.3492 32.1467C26.817 32.2131 25.2836 32.2475 23.75 32.25C22.2164 32.2475 20.683 32.2131 19.1508 32.1467L17.3624 32.0612L15.6507 31.9597L14.0475 31.8492L12.5833 31.737C10.9941 31.6161 9.49857 30.9382 8.36008 29.8229C7.22158 28.7075 6.51318 27.2262 6.35966 25.6398L6.28841 24.8828L6.15481 23.2618C6.01914 21.5111 5.94665 19.756 5.9375 18C5.9375 16.249 6.03012 14.4179 6.15481 12.7382L6.28841 11.1172L6.35966 10.3602C6.51312 8.77411 7.22127 7.293 8.3594 6.17768C9.49753 5.06235 10.9927 4.38433 12.5816 4.263L14.044 4.149L15.6471 4.04034L17.3607 3.93881L19.149 3.85331C20.6818 3.78692 22.2158 3.75248 23.75 3.75ZM20.1875 13.6805V22.3195C20.1875 23.1425 21.0781 23.6555 21.7906 23.2458L29.2719 18.9263C29.4347 18.8325 29.5699 18.6976 29.6639 18.535C29.7579 18.3724 29.8074 18.1878 29.8074 18C29.8074 17.8122 29.7579 17.6276 29.6639 17.465C29.5699 17.3024 29.4347 17.1675 29.2719 17.0737L21.7906 12.756C21.6281 12.6622 21.4437 12.6128 21.2561 12.6128C21.0684 12.6128 20.8841 12.6623 20.7216 12.7562C20.5591 12.8501 20.4242 12.9851 20.3304 13.1476C20.2367 13.3102 20.1874 13.4946 20.1875 13.6823V13.6805Z" fill="white"/>
</svg>
