<?xml version="1.0" encoding="utf-8"?>
<!-- Generator: Adobe Illustrator 23.0.1, SVG Export Plug-In . SVG Version: 6.00 Build 0)  -->
<svg version="1.1" id="Layer_1" xmlns="http://www.w3.org/2000/svg" xmlns:xlink="http://www.w3.org/1999/xlink" x="0px" y="0px"
	 viewBox="0 0 748.53 408.06" style="enable-background:new 0 0 748.53 408.06;" xml:space="preserve">
<style type="text/css">
	.st0{fill:#FFFFFF;}
</style>
<g>
	<g>
		<g>
			<path class="st0" d="M374.26,122.26l-0.94-19.52c-0.05-0.63,0.12-1.25,0.43-1.8c0.26-0.45,0.4-0.99,0.4-1.57
				c0-1.56-1.08-2.82-2.41-2.82c-1.33,0-2.4,1.27-2.4,2.83c0,0.58,0.15,1.12,0.41,1.57c0.31,0.55,0.48,1.17,0.44,1.8l-0.86,19.52
				c-0.29,4.07-0.43,8.16-0.42,12.24l0.12,59.39c0,1.62,1.21,3.01,2.78,3.08c1.68,0.08,3.06-1.3,3.05-3.01l-0.12-59.47
				C374.72,130.42,374.57,126.34,374.26,122.26z"/>
			<g>
				<path class="st0" d="M384.78,122.24l-0.94-19.52c-0.05-0.63,0.12-1.25,0.43-1.8c0.26-0.45,0.4-0.99,0.4-1.57
					c0-1.56-1.08-2.82-2.41-2.82c-1.33,0-2.4,1.27-2.4,2.83c0,0.58,0.15,1.12,0.41,1.57c0.31,0.55,0.48,1.17,0.44,1.8l-0.86,19.52
					c-0.29,4.07-0.43,8.16-0.42,12.24l0.12,59.39c0,1.62,1.21,3.01,2.78,3.08c1.68,0.08,3.06-1.3,3.05-3.01l-0.12-59.47
					C385.25,130.4,385.09,126.32,384.78,122.24z"/>
			</g>
		</g>
		<path class="st0" d="M431.61,162.92l8.38-0.02l8.59,31.69l16.55-0.03l-9.83-36.35c1.77-1.4,3.31-3.06,4.57-4.94
			c2.33-3.47,3.69-7.71,3.68-12.19l-0.04-20.5c0-2.98-0.62-5.87-1.72-8.48c-1.66-3.92-4.4-7.22-7.86-9.56
			c-3.45-2.34-7.67-3.71-12.13-3.7l-26.31,0.05l0.11,56.02l0.02,8.04l0.06,31.71l15.99-0.03L431.61,162.92z M431.52,114.94
			l10.31-0.02c0.81,0,1.53,0.16,2.21,0.44c1.01,0.42,1.89,1.16,2.51,2.07c0.62,0.92,0.97,1.97,0.97,3.18l0.04,20.5
			c0,0.81-0.16,1.54-0.44,2.22c-0.42,1.01-1.15,1.9-2.06,2.52c-0.91,0.62-1.96,0.97-3.17,0.98l-10.31,0.02L431.52,114.94z"/>
		<g>
			<path class="st0" d="M303.02,176.85l22.15-0.04l3.61,18.02l16.31-0.03L326,99.09l-23.1,0.05l-20.02,95.79l16.35-0.03
				L303.02,176.85z M314.36,122.88l7.59,37.87l-15.55,0.03L314.36,122.88z"/>
		</g>
	</g>
	<g>
		<g>
			<polygon class="st0" points="344.29,277.04 329.26,215.86 309.21,215.9 309.21,215.9 309.4,311.62 325.39,311.59 325.27,251.52 
				338.59,311.56 351.11,311.53 363.05,252.12 363.17,311.51 379.17,311.48 378.97,215.76 378.97,215.76 359.09,215.8 			"/>
			
				<rect x="363.17" y="311.49" transform="matrix(1 -2.001333e-03 2.001333e-03 1 -0.6227 0.7435)" class="st0" width="15.99" height="0"/>
			
				<rect x="309.4" y="311.6" transform="matrix(1 -2.001332e-03 2.001332e-03 1 -0.623 0.6358)" class="st0" width="15.99" height="0"/>
		</g>
		<g>
			<polygon class="st0" points="431.84,276.86 416.81,215.68 396.75,215.72 396.75,215.72 396.95,311.44 412.94,311.41 
				412.82,251.35 426.14,311.38 438.65,311.36 450.6,251.94 450.72,311.33 466.71,311.3 466.52,215.58 466.52,215.58 446.64,215.62 
							"/>
			
				<rect x="450.72" y="311.32" transform="matrix(1 -2.001333e-03 2.001333e-03 1 -0.6221 0.9187)" class="st0" width="15.99" height="0"/>
			
				<rect x="396.95" y="311.43" transform="matrix(1 -2.001340e-03 2.001340e-03 1 -0.6225 0.8111)" class="st0" width="15.99" height="0"/>
		</g>
		<path class="st0" d="M148.69,219.93c-3.45-2.34-7.67-3.71-12.13-3.7l-26.31,0.05l0.19,95.73l26.31-0.05
			c2.97,0,5.84-0.62,8.43-1.73c3.9-1.67,7.18-4.42,9.51-7.9c2.33-3.47,3.69-7.7,3.68-12.19l-0.1-52.19c0-2.98-0.62-5.87-1.72-8.47
			C154.89,225.57,152.15,222.27,148.69,219.93z M142.38,290.18c0,0.81-0.16,1.54-0.44,2.22c-0.42,1.01-1.15,1.9-2.06,2.52
			c-0.91,0.62-1.96,0.97-3.17,0.98l-10.31,0.02l-0.13-63.6l10.31-0.02c0.81,0,1.53,0.16,2.21,0.44c1.01,0.42,1.89,1.16,2.51,2.07
			c0.62,0.92,0.97,1.97,0.97,3.18L142.38,290.18z"/>
		<path class="st0" d="M638.39,247.07l-0.03-12.63c0-2.63-0.55-5.18-1.52-7.48c-1.46-3.45-3.88-6.37-6.94-8.43
			c-3.05-2.06-6.77-3.28-10.7-3.26l-11.82,0.02c-2.62,0-5.15,0.55-7.44,1.53c-3.44,1.47-6.34,3.9-8.39,6.97
			c-2.05,3.06-3.26,6.8-3.25,10.75l0.11,57.31c0,2.63,0.55,5.18,1.52,7.48c1.46,3.46,3.88,6.37,6.94,8.43
			c3.05,2.06,6.77,3.28,10.7,3.26l11.82-0.02c2.62,0,5.15-0.55,7.44-1.53c3.44-1.47,6.34-3.9,8.39-6.97
			c2.05-3.06,3.26-6.8,3.25-10.75l-0.07-32.69l-23.76,0.05l0.03,16.07l7.76-0.02l0.03,16.62c0,0.46-0.09,0.85-0.24,1.22
			c-0.23,0.55-0.64,1.05-1.14,1.39c-0.51,0.34-1.07,0.53-1.74,0.54l-11.82,0.02c-0.45,0-0.85-0.09-1.22-0.24
			c-0.55-0.23-1.05-0.64-1.39-1.15c-0.34-0.51-0.53-1.07-0.53-1.75l-0.11-57.31c0-0.46,0.09-0.85,0.24-1.22
			c0.23-0.55,0.64-1.05,1.14-1.39c0.51-0.34,1.07-0.53,1.74-0.54l11.82-0.02c0.45,0,0.85,0.09,1.22,0.24
			c0.55,0.23,1.05,0.64,1.39,1.14c0.34,0.51,0.53,1.07,0.53,1.75l0.03,12.63L638.39,247.07z"/>
		<path class="st0" d="M275.82,293.14c0,0.37-0.07,0.68-0.19,0.97c-0.18,0.44-0.51,0.84-0.91,1.11c-0.41,0.27-0.84,0.42-1.39,0.43
			l-5.85,0.01l-0.58,0l-5.85,0.01c-0.37,0-0.67-0.07-0.97-0.19c-0.44-0.18-0.83-0.51-1.11-0.91c-0.27-0.41-0.42-0.85-0.42-1.39
			L258.4,216l-15.99,0.03h0l0.15,77.18c0,2.54,0.53,5,1.47,7.23c1.42,3.34,3.75,6.16,6.7,8.15c2.94,2,6.55,3.17,10.35,3.16
			l5.85-0.01l0.58,0l5.85-0.01c2.53,0,4.98-0.53,7.19-1.48c3.32-1.42,6.13-3.77,8.11-6.74c1.99-2.96,3.15-6.58,3.14-10.39
			l-0.15-77.18l-15.99,0.03L275.82,293.14z"/>
		
			<rect x="484.4" y="215.52" transform="matrix(1 -2.001333e-03 2.001333e-03 1 -0.5261 0.986)" class="st0" width="15.99" height="95.73"/>
		<g>
			<polygon class="st0" points="518.26,311.2 534.26,311.17 534.15,258.99 553.85,311.13 570.41,311.1 570.22,215.36 554.23,215.4 
				554.33,266.91 534.63,215.43 518.07,215.47 			"/>
			
				<rect x="518.26" y="310.84" transform="matrix(1 -2.001332e-03 2.001332e-03 1 -0.621 1.0538)" class="st0" width="15.99" height="0"/>
		</g>
		<path class="st0" d="M192.39,280.15l8.38-0.02l8.59,31.69l16.55-0.03l-9.83-36.34c1.77-1.4,3.31-3.06,4.57-4.94
			c2.33-3.47,3.69-7.71,3.68-12.19l-0.04-20.49c0-2.98-0.62-5.87-1.72-8.47c-1.66-3.91-4.4-7.22-7.86-9.56
			c-3.45-2.34-7.67-3.71-12.13-3.7l-26.31,0.05l0.11,56l0.02,8.03l0.06,31.7l15.99-0.03L192.39,280.15z M192.29,232.18l10.31-0.02
			c0.81,0,1.53,0.16,2.21,0.44c1.01,0.42,1.89,1.16,2.51,2.07c0.62,0.92,0.97,1.97,0.97,3.18l0.04,20.49c0,0.81-0.16,1.54-0.44,2.22
			c-0.42,1.01-1.15,1.9-2.06,2.52c-0.91,0.62-1.96,0.97-3.17,0.98l-10.31,0.02L192.29,232.18z"/>
	</g>
</g>
</svg>
